<?xml version="1.0" encoding="UTF-8" standalone="no"?>
<!-- Created with Inkscape (http://www.inkscape.org/) -->

<svg
   width="111.66386mm"
   height="26.712709mm"
   viewBox="0 0 395.65937 94.651332"
   id="svg3522"
   version="1.1"
   xmlns="http://www.w3.org/2000/svg"
   xmlns:svg="http://www.w3.org/2000/svg"
   xmlns:rdf="http://www.w3.org/1999/02/22-rdf-syntax-ns#"
   xmlns:cc="http://creativecommons.org/ns#"
   xmlns:dc="http://purl.org/dc/elements/1.1/">
  <defs
     id="defs3524" />
  <metadata
     id="metadata3527">
    <rdf:RDF>
      <cc:Work
         rdf:about="">
        <dc:format>image/svg+xml</dc:format>
        <dc:type
           rdf:resource="http://purl.org/dc/dcmitype/StillImage" />
      </cc:Work>
    </rdf:RDF>
  </metadata>
  <g
     id="layer1"
     transform="translate(-27.601821,-395.34507)"
     style="stroke:none">
    <g
       style="display:inline;stroke:none"
       id="g4469"
       transform="translate(-621.55272,-186.17892)">
      <rect
         style="fill:#1e1e2e;fill-opacity:1;stroke:none;stroke-width:3.13932;stroke-linecap:round;stroke-opacity:0.701223;paint-order:stroke fill markers"
         id="rect1"
         width="395.65933"
         height="94.651337"
         x="649.15454"
         y="581.52399" />
      <g
         id="g4463"
         style="stroke:none">
        <path
           style="fill:#ffffff;fill-opacity:1;stroke:none"
           d="m 774.83823,652.61255 v -39 c 0,0 14.0008,0 19.5004,0 5.4996,0 10.4996,5 10.5,10.5 4e-4,5.5 0,28.5 0,28.5 h -7 c 0,0 -3.9e-4,-18 -4e-4,-27 0,-2.71875 -2,-5 -5,-5 -3.66681,0 -11,0 -11,0 v 37 z"
           id="path3118" />
        <path
           style="fill:#ffffff;fill-opacity:1;stroke:none"
           d="m 817.83863,652.61255 v -39 h 7 v 39 z"
           id="path3120" />
        <path
           style="fill:#ffffff;fill-opacity:1;stroke:none"
           d="m 817.83863,604.61255 h 7 v -8 l -7,5 z"
           id="path3122" />
        <path
           style="fill:#ffffff;fill-opacity:1;stroke:none"
           d="m 844.83863,652.61255 h -7 v -39 h 38.5 c 6,0 10.49999,4.5 10.5,10.5 v 28.5 l -7,5 -4e-4,-32 c -4e-5,-3 -2,-5 -5,-5 h -8.9996 v 32 h -7 v -32 h -14 z"
           id="path3124" />
      </g>
      <g
         id="g4459"
         style="stroke:none">
        <path
           style="fill:#f3d400;fill-opacity:1;stroke:none"
           d="m 709.69141,596.61258 c 0,0 -3.41031,2.69499 -6.88691,5.37174 -3.57641,-0.11362 -10.59106,0.68718 -14.39187,2.06946 -3.50133,-2.21819 -6.57787,-4.66728 -6.57787,-4.66728 0,0 -2.62896,4.52282 -4.28224,7.17702 -2.45187,1.30403 -4.91362,2.77074 -7.10764,4.7113 -2.55188,-1.01333 -5.5101,-2.24876 -5.60665,-2.28959 3.37945,6.81645 5.65131,13.64192 11.83134,17.74436 9.83897,-15.53906 55.55981,-14.10685 65.60219,-0.0881 6.49004,-3.38511 9.01412,-10.66815 11.56647,-17.39212 -0.27986,0.0922 -3.75271,1.25487 -6.00396,2.11349 -1.34414,-1.46336 -4.51234,-3.71327 -6.31301,-4.79936 -1.70802,-3.12771 -4.19395,-7.35313 -4.19395,-7.35313 0,0 -2.94437,2.1899 -6.35714,4.5792 -4.61059,-0.85108 -10.1872,-1.88519 -14.87749,-1.62916 -3.19286,-2.62436 -6.40127,-5.54786 -6.40127,-5.54786 z"
           id="path3054" />
        <path
           style="fill:#ffe953;fill-opacity:1;stroke:none"
           d="m 668.33241,623.47127 c 0,0 4.78987,11.5978 8.1165,19.65678 14.09625,18.59727 50.09234,19.89014 65.7848,0.36006 3.71345,-8.36876 8.72334,-20.1298 8.72334,-20.1298 -4.0259,5.96409 -10.5778,10.08114 -14.61301,12.29885 -2.86735,1.57082 -9.48338,2.52031 -9.48338,2.52031 l -17.36961,-9.00108 -17.46941,8.82104 c 0,0 -6.52806,-1.04882 -9.4834,-2.4303 -5.96472,-3.18408 -9.9764,-6.94592 -14.20583,-12.09586 z"
           id="path3051" />
      </g>
      <path
         style="font-weight:800;font-size:52.655px;line-height:1.25;font-family:'Recursive Mono Casual Static';-inkscape-font-specification:'Recursive Mono Casual Static, Ultra-Bold';fill:#ffffff;fill-opacity:1;stroke:none;stroke-width:1.42725"
         d="m 893.98118,615.97288 q 0.62798,-0.11418 1.25598,-0.22836 0.68507,-0.11418 1.31306,-0.11418 1.76978,0 3.3112,0.79926 1.54143,0.79926 2.56905,2.74031 1.02762,1.88397 1.19888,5.25226 h 0.39963 q 0.91344,-2.45485 2.56904,-4.51009 1.65561,-2.11232 3.71084,-3.3683 2.05523,-1.25598 4.22465,-1.25598 2.22649,0 4.22464,1.65561 2.05523,1.59852 3.31121,4.33883 1.31306,2.68321 1.31306,5.88024 v 1.25598 q 0,5.08099 -1.0847,8.73474 -1.02762,3.59665 -2.79741,5.88024 -1.76978,2.2836 -3.8821,3.36831 -2.11232,1.0847 -4.22465,1.0847 -2.62613,0 -4.62427,-1.37016 -1.94105,-1.42724 -2.7974,-3.19702 h -0.28544 v 15.1288 q -0.74218,0.11418 -1.25598,0.11418 -0.51381,0.057 -1.1418,0.057 -2.34068,0 -3.71084,-1.31306 -1.37015,-1.25598 -1.94105,-3.36831 -0.5138,-2.05523 -0.5138,-4.33882 v -27.57437 q 0,-1.42725 -0.28546,-3.02576 -0.22836,-1.59852 -0.85634,-2.62613 z m 19.46761,8.50639 q -3.19702,0 -5.65188,1.94105 -2.39777,1.94105 -4.11046,6.7366 v 4.73844 q 1.82687,1.37016 4.56718,1.37016 3.19703,0 4.73845,-2.45486 1.54143,-2.45486 1.54143,-7.07913 v -0.628 q 0,-3.42538 -0.45672,-4.56718 -0.17128,-0.057 -0.34254,-0.057 -0.17128,0 -0.28546,0 z m 24.49145,22.3221 q -0.74218,0.11418 -1.25598,0.11418 -0.51381,0.0571 -1.1418,0.0571 -2.34068,0 -3.71084,-1.25598 -1.37015,-1.31307 -1.94105,-3.3683 -0.5138,-2.11232 -0.5138,-4.39591 v -28.3165 q 0,-1.42725 -0.28546,-3.02576 -0.22836,-1.59852 -0.85634,-2.62613 0.62798,-0.11418 1.25598,-0.22836 0.68507,-0.11418 1.31306,-0.11418 1.88396,0 3.48248,0.91344 1.6556,0.85635 2.62613,3.08285 1.02762,2.16942 1.02762,6.10861 v 16.44186 h 0.28544 q 3.13994,-2.28358 5.25226,-4.96682 3.53957,-4.56718 5.19518,-9.93362 h 1.37015 q 2.96867,0 5.0239,0.85635 2.05524,0.79926 2.05524,2.28359 0,0.74216 -0.28546,1.59852 -0.22836,0.79925 -1.02761,2.22649 -1.37016,2.56905 -3.48248,4.85264 -2.05523,2.28359 -4.56718,4.11047 4.79554,8.50637 11.41796,14.90043 -1.08471,0.62799 -2.68323,0.91343 -1.54142,0.34254 -3.25411,0.34254 -3.48248,0 -5.42354,-1.94105 -0.97052,-0.97052 -1.88395,-2.2265 -0.91344,-1.25597 -1.7127,-2.68322 -0.74217,-1.42724 -1.31307,-2.85449 -0.5709,-1.42724 -1.02761,-3.02576 h -0.34254 q -1.76978,0.74217 -3.59665,1.1418 z m 39.22059,-31.51357 q 3.31121,-0.0571 6.1657,0.97054 l 0.5709,-2.62613 q 0.28544,-1.1989 0.28544,-2.85449 0,-0.628 -0.057,-1.1989 -0.0571,-0.57089 -0.22836,-1.14179 1.1418,-0.17127 2.2265,-0.17127 2.7974,0 4.5101,0.85635 1.71269,0.79925 1.71269,3.13994 v 0.28544 q 0,1.25598 -0.74217,2.39778 -0.74216,1.14179 -2.96867,2.28359 l -1.54142,0.79925 v 0.39964 q 1.76978,1.42724 2.74031,3.48247 1.02762,1.99815 1.02762,4.453 v 0.5709 q 0,3.31121 -1.82688,5.70898 -1.82687,2.39777 -4.96681,3.71084 -3.08285,1.31306 -6.96496,1.31306 -0.5709,0 -1.0847,0 -0.39963,1.08472 -0.39963,2.68323 0,0.79926 0.51381,1.37015 0.5138,0.51381 1.42724,0.62799 l 7.87839,0.5709 q 3.08285,0.22835 5.19518,1.99814 2.11232,1.76978 2.11232,5.02391 v 0.97052 q 0,4.96681 -4.85263,7.53585 -4.79554,2.62613 -13.47319,2.62613 h -0.51382 q -6.05152,0 -9.19145,-1.99814 -3.08285,-1.99815 -3.08285,-5.48062 v -0.74217 q 0,-2.51195 1.88397,-4.16755 1.88396,-1.65561 5.19517,-1.88397 v -0.39962 q -0.97053,-1.42725 -0.97053,-3.19703 0,-1.94104 1.02761,-3.48247 1.08471,-1.54143 3.19703,-2.28359 v -0.39963 q -3.88211,-1.02761 -6.22278,-3.65374 -2.34068,-2.62613 -2.34068,-6.2228 v -0.5709 q 0,-3.48247 1.82688,-5.99442 1.82686,-2.56904 4.90971,-3.9392 3.13994,-1.37015 7.02205,-1.37015 z m 0.5709,7.42168 q -6.33697,0 -6.33697,4.90972 v 0.45672 q 0,1.14179 0.45672,2.34069 1.14179,0.45671 2.39777,0.74216 1.25597,0.22836 2.85449,0.22836 6.33697,0 6.33697,-4.90973 v -0.45671 q 0,-1.31306 -0.45672,-2.51196 -1.08471,-0.39962 -2.39777,-0.57089 -1.25598,-0.22836 -2.85449,-0.22836 z m -2.7974,32.65536 h 0.74217 q 2.34067,0 4.33882,-0.057 2.05524,-0.0571 3.71083,-0.28545 0.34254,-0.5709 0.45672,-1.0847 0.11418,-0.51382 0.11418,-1.08472 v -0.68507 q 0,-1.48434 -1.54142,-1.59852 l -6.67951,-0.5138 q -2.68321,-0.22836 -4.68136,-1.25598 -1.19888,1.19888 -1.19888,3.25412 v 0.62794 q 0,1.42723 1.14179,2.05523 1.1418,0.62798 3.59666,0.62798 z m 36.36607,-16.44186 q 3.5967,0 6.1086,-0.62798 0.2285,-0.85636 -0.3996,-1.88397 -0.5709,-1.0847 -2.8545,-1.59852 l -6.6224,-1.54141 q -4.9097,-1.1418 -7.022,-2.74031 -2.05527,-1.65561 -2.05527,-4.85264 0,-2.56904 1.37016,-4.51009 1.37011,-1.94105 3.71081,-3.25413 2.3978,-1.31306 5.3093,-1.94105 2.9687,-0.68508 6.0516,-0.68508 3.2541,0 4.9097,0.34254 1.6556,0.34254 2.4549,1.1418 0.9134,0.91344 1.3701,2.51195 0.5138,1.54143 0.5138,4.05338 0,0.5709 -0.1142,1.1418 -0.057,0.5138 -0.1713,1.0847 h -0.3425 q -1.7126,-0.79926 -3.5966,-1.25598 -1.884,-0.45672 -4.8526,-0.45672 -4.3389,0 -6.2229,0.5709 -1.8268,0.5709 -1.8268,1.59852 0,0.85635 0.9134,1.31307 0.9134,0.39962 3.7109,1.02761 l 5.3664,1.1418 q 4.5671,0.97052 6.5654,3.02575 1.9981,1.99815 1.9981,4.90972 0,5.19518 -3.5967,7.65004 -3.5396,2.39777 -11.3609,2.39777 -5.0239,0 -7.9355,-0.74216 -2.9115,-0.79926 -3.71075,-1.59852 -0.91344,-0.97053 -1.42725,-2.28359 -0.51381,-1.37015 -0.51381,-3.99628 0,-0.97054 0.057,-1.7127 0.11418,-0.74217 0.22836,-1.37015 h 0.34254 q 2.05524,1.14179 3.71081,1.88395 1.7127,0.68508 3.9963,0.97054 2.2836,0.28544 5.9373,0.28544 z"
         id="text1"
         aria-label="pkgs" />
    </g>
  </g>
</svg>
